<svg fill="none" height="147" viewBox="0 0 147 147" width="147" xmlns="http://www.w3.org/2000/svg" xmlns:xlink="http://www.w3.org/1999/xlink"><filter id="a" color-interpolation-filters="sRGB" filterUnits="userSpaceOnUse" height="147" width="147" x="0" y="0"><feFlood flood-opacity="0" result="BackgroundImageFix"/><feColorMatrix in="SourceAlpha" result="hardAlpha" type="matrix" values="0 0 0 0 0 0 0 0 0 0 0 0 0 0 0 0 0 0 127 0"/><feOffset dy="4"/><feGaussianBlur stdDeviation="2"/><feComposite in2="hardAlpha" operator="out"/><feColorMatrix type="matrix" values="0 0 0 0 0 0 0 0 0 0 0 0 0 0 0 0 0 0 0.25 0"/><feBlend in2="BackgroundImageFix" mode="normal" result="effect1_dropShadow_530_3887"/><feBlend in="SourceGraphic" in2="effect1_dropShadow_530_3887" mode="normal" result="shape"/></filter><filter id="b" color-interpolation-filters="sRGB" filterUnits="userSpaceOnUse" height="125.175" width="91.9462" x="27.0897" y="11.3498"><feFlood flood-opacity="0" result="BackgroundImageFix"/><feColorMatrix in="SourceAlpha" result="hardAlpha" type="matrix" values="0 0 0 0 0 0 0 0 0 0 0 0 0 0 0 0 0 0 127 0"/><feOffset dy="4"/><feGaussianBlur stdDeviation="2"/><feComposite in2="hardAlpha" operator="out"/><feColorMatrix type="matrix" values="0 0 0 0 0 0 0 0 0 0 0 0 0 0 0 0 0 0 0.25 0"/><feBlend in2="BackgroundImageFix" mode="normal" result="effect1_dropShadow_530_3887"/><feBlend in="SourceGraphic" in2="effect1_dropShadow_530_3887" mode="normal" result="shape"/></filter><g filter="url(#a)"><circle cx="73.5" cy="69.5" fill="#07b9b9" r="69.5"/><g filter="url(#b)"><ellipse cx="74.5618" cy="70.6696" fill="#f2eaea" rx="28.4817" ry="13.9145"/><ellipse cx="73.8124" cy="34.7847" fill="#f2eaea" rx="14.2409" ry="11.7175"/><path d="m73.0628 11.3498c-23.1452 0-41.9731 18.3965-41.9731 41.0112 0 30.7584 41.9731 76.164 41.9731 76.164s41.9732-45.4056 41.9732-76.164c0-22.6147-18.8281-41.0112-41.9732-41.0112zm0 11.7175c6.5957 0 11.9923 5.2729 11.9923 11.7175 0 6.5032-5.3966 11.7175-11.9923 11.7175-6.5958 0-11.9924-5.2143-11.9924-11.7175 0-6.4446 5.3966-11.7175 11.9924-11.7175zm0 58.5874c-10.0136 0-18.828-4.9799-23.9847-12.5963.12-7.7335 16.0098-12.0104 23.9847-12.0104 7.9748 0 23.8647 4.2769 23.9846 12.0104-5.1567 7.6164-13.9711 12.5963-23.9846 12.5963z" fill="#d9698c"/></g></g></svg>